<svg width="512" height="512" viewBox="0 0 512 512" fill="none" xmlns="http://www.w3.org/2000/svg">
<path d="M410.076 395.733L421.924 406.485C429.335 398.316 436.137 389.614 442.275 380.45L428.979 371.55C423.277 380.062 416.96 388.145 410.076 395.733V395.733Z" fill="#ffffff" id="id_101"></path>
<path d="M256 400C251.253 400 246.613 401.408 242.666 404.045C238.72 406.682 235.643 410.43 233.827 414.816C232.01 419.201 231.535 424.027 232.461 428.682C233.387 433.338 235.673 437.614 239.029 440.971C242.386 444.327 246.662 446.613 251.318 447.539C255.973 448.465 260.799 447.99 265.184 446.173C269.57 444.357 273.318 441.28 275.955 437.334C278.592 433.387 280 428.747 280 424C279.993 417.637 277.462 411.537 272.963 407.037C268.463 402.538 262.363 400.007 256 400V400ZM256 432C254.418 432 252.871 431.531 251.555 430.652C250.24 429.773 249.214 428.523 248.609 427.061C248.003 425.6 247.845 423.991 248.154 422.439C248.462 420.887 249.224 419.462 250.343 418.343C251.462 417.224 252.887 416.462 254.439 416.154C255.991 415.845 257.6 416.003 259.061 416.609C260.523 417.214 261.773 418.24 262.652 419.555C263.531 420.871 264 422.418 264 424C263.998 426.121 263.154 428.154 261.654 429.654C260.154 431.154 258.121 431.998 256 432V432Z" fill="#ffffff" id="id_102"></path>
<path d="M395.387 382.363C393.991 376.163 391.19 370.366 387.201 365.419C383.213 360.471 378.142 356.505 372.379 353.825L288 314.881V300.281L294.187 296.156C299.671 292.509 304.168 287.561 307.276 281.754C310.384 275.947 312.007 269.461 312 262.874V206.838C317.627 205.303 322.748 202.306 326.843 198.152C329.815 195.163 332.157 191.608 333.729 187.697C335.301 183.786 336.072 179.599 335.995 175.384C335.793 167.018 332.338 159.061 326.364 153.201C320.39 147.342 312.368 144.041 304 144C299.732 143.986 295.505 144.833 291.572 146.49C287.638 148.146 284.079 150.579 281.107 153.642C277.574 157.328 273.173 160.07 268.307 161.616C263.441 163.162 258.264 163.463 253.252 162.491C248.135 161.467 243.372 159.133 239.427 155.717H239.426C233.827 150.862 227.18 147.369 220.006 145.512C212.832 143.655 205.325 143.485 198.074 145.014C190.823 146.543 184.024 149.731 178.211 154.327C172.398 158.923 167.727 164.802 164.566 171.505C161.405 178.207 159.839 185.551 159.99 192.96C160.141 200.369 162.006 207.642 165.438 214.21C168.871 220.778 173.777 226.462 179.773 230.817C185.769 235.172 192.692 238.079 200 239.311V262.874C199.993 269.461 201.616 275.947 204.724 281.754C207.832 287.561 212.328 292.509 217.812 296.156L224 300.281V314.881L139.621 353.825C133.858 356.505 128.787 360.471 124.798 365.419C120.809 370.366 118.009 376.163 116.613 382.363L106.191 429.261C104.567 436.568 104.96 444.179 107.327 451.279L112.821 467.762C115.555 475.989 120.812 483.145 127.846 488.215C134.879 493.284 143.33 496.008 152 496H360C368.67 496.008 377.121 493.283 384.155 488.214C391.188 483.145 396.445 475.988 399.179 467.761L404.672 451.28C407.04 444.179 407.433 436.568 405.808 429.261L395.387 382.363ZM144 478.703C140.273 477.463 136.886 475.371 134.108 472.594C131.331 469.816 129.239 466.43 128 462.702L123.099 448H144V478.703ZM144 376V432H121.973L132.232 385.834C133.035 382.272 134.595 378.923 136.806 376.017C139.017 373.111 141.828 370.714 145.047 368.99C144.352 371.262 143.999 373.624 144 376V376ZM203.455 223.686C195.443 222.531 188.166 218.385 183.087 212.082C178.008 205.779 175.505 197.786 176.08 189.712C176.637 182.04 179.936 174.825 185.373 169.384C190.811 163.944 198.025 160.641 205.696 160.08C206.464 160.028 207.228 160.001 207.989 160.001C215.689 159.982 223.135 162.755 228.946 167.807C237.906 175.567 249.506 179.585 261.346 179.029C273.186 178.473 284.359 173.386 292.553 164.821C294.039 163.29 295.818 162.073 297.785 161.245C299.752 160.417 301.866 159.993 304 160C308.183 160.02 312.194 161.669 315.181 164.598C318.168 167.528 319.895 171.505 319.997 175.688C320.027 177.775 319.638 179.847 318.852 181.781C318.066 183.715 316.9 185.471 315.423 186.945C313.861 188.536 312 189.802 309.947 190.669C307.894 191.537 305.689 191.989 303.46 192H259.777C248.451 191.96 237.307 194.859 227.436 200.412C217.564 205.966 209.301 213.985 203.455 223.686V223.686ZM216 262.874V233.963C220.271 226.084 226.596 219.51 234.304 214.938C242.013 210.367 250.815 207.969 259.777 208H296V262.874C296.004 266.826 295.03 270.718 293.165 274.202C291.301 277.686 288.603 280.655 285.312 282.844L275.562 289.344C274.466 290.074 273.568 291.064 272.946 292.225C272.325 293.386 272 294.683 272 296V314.234L256 319.568L240 314.234V296C240 294.683 239.675 293.386 239.053 292.225C238.432 291.064 237.533 290.074 236.437 289.344L226.687 282.844C223.397 280.655 220.699 277.686 218.834 274.202C216.969 270.718 215.996 266.826 216 262.874V262.874ZM232.475 328.592L253.47 335.59C255.112 336.137 256.888 336.137 258.53 335.59L279.525 328.592L330.243 352H181.757L232.475 328.592ZM352 480H160V376C160.002 373.879 160.846 371.846 162.346 370.346C163.845 368.846 165.879 368.003 168 368H344C346.121 368.003 348.154 368.846 349.654 370.346C351.154 371.846 351.997 373.879 352 376V480ZM384 462.701C382.76 466.429 380.669 469.816 377.891 472.594C375.114 475.371 371.727 477.463 368 478.703V448H388.9L384 462.701ZM368 432V376C368.001 373.624 367.648 371.262 366.953 368.99C370.172 370.714 372.982 373.111 375.194 376.017C377.405 378.923 378.965 382.272 379.767 385.834L390.026 432H368Z" fill="#ffffff" id="id_103"></path>
<path d="M160 312V248C159.993 241.637 157.462 235.537 152.963 231.037C148.463 226.538 142.363 224.007 136 224H40C33.637 224.007 27.5368 226.538 23.0375 231.037C18.5382 235.537 16.0073 241.637 16 248V312C16.0073 318.363 18.5382 324.463 23.0375 328.963C27.5368 333.462 33.637 335.993 40 336H136C142.363 335.993 148.463 333.462 152.963 328.963C157.462 324.463 159.993 318.363 160 312V312ZM40 240H136C136.279 240 136.557 240.015 136.835 240.044L88 270.566L39.1653 240.044C39.4426 240.015 39.7212 240 40 240V240ZM32 312V254.434L83.7598 286.784C85.0314 287.579 86.5006 288 88 288C89.4994 288 90.9686 287.579 92.2402 286.784L144 254.434V312C143.998 314.121 143.154 316.154 141.654 317.654C140.154 319.154 138.121 319.998 136 320H40C37.879 319.998 35.8456 319.154 34.3458 317.654C32.8461 316.154 32.0024 314.121 32 312V312Z" fill="#ffffff" id="id_104"></path>
<path d="M136 192H144V176H136C133.879 175.998 131.846 175.154 130.346 173.654C128.846 172.154 128.002 170.121 128 168V40C128.002 37.879 128.846 35.8456 130.346 34.3458C131.846 32.8461 133.879 32.0024 136 32H200C202.121 32.0024 204.154 32.8461 205.654 34.3458C207.154 35.8456 207.998 37.879 208 40V128H224V40C223.993 33.637 221.462 27.5368 216.963 23.0375C212.463 18.5382 206.363 16.0073 200 16H136C129.637 16.0073 123.537 18.5382 119.037 23.0375C114.538 27.5368 112.007 33.637 112 40V168C112.007 174.363 114.538 180.463 119.037 184.963C123.537 189.462 129.637 191.993 136 192V192Z" fill="#ffffff" id="id_105"></path>
<path d="M192 48H144V64H192V48Z" fill="#ffffff" id="id_106"></path>
<path d="M304 32H320V56C320 58.1217 320.843 60.1565 322.343 61.6567C323.844 63.157 325.878 63.9999 328 64H392C394.122 63.9999 396.156 63.157 397.657 61.6567C399.157 60.1565 400 58.1217 400 56V32H416V176H352V192H424C426.122 192 428.156 191.157 429.657 189.657C431.157 188.156 432 186.122 432 184V24C432 21.8783 431.157 19.8435 429.657 18.3433C428.156 16.843 426.122 16.0001 424 16H296C293.878 16.0001 291.844 16.843 290.343 18.3433C288.843 19.8435 288 21.8783 288 24V128H304V32ZM336 32H384V48H336V32Z" fill="#ffffff" id="id_107"></path>
<path d="M400 80H320V96H400V80Z" fill="#ffffff" id="id_108"></path>
<path d="M400 112H320V128H400V112Z" fill="#ffffff" id="id_109"></path>
<path d="M400 144H344V160H400V144Z" fill="#ffffff" id="id_110"></path>
<path d="M464 48H448V192H464V48Z" fill="#ffffff" id="id_111"></path>
<path d="M427.522 240H420.478C410.932 240 401.639 243.071 393.973 248.76C386.307 254.448 380.675 262.452 377.908 271.589C375.142 280.725 375.389 290.509 378.612 299.495C381.835 308.48 387.863 316.19 395.806 321.485L400 324.281V352C400 354.122 400.843 356.156 402.343 357.657C403.844 359.157 405.878 360 408 360H440C442.122 360 444.156 359.157 445.657 357.657C447.157 356.156 448 354.122 448 352V324.281L452.194 321.485C460.137 316.19 466.165 308.48 469.388 299.495C472.611 290.509 472.858 280.725 470.092 271.589C467.325 262.452 461.693 254.448 454.027 248.76C446.361 243.071 437.068 240 427.522 240ZM432 344H416V328H432V344ZM443.319 308.173L437.578 312H432V296H440V280H408V296H416V312H410.422L404.681 308.173C399.595 304.782 395.736 299.846 393.672 294.093C391.609 288.34 391.451 282.075 393.222 276.225C394.993 270.376 398.599 265.251 403.508 261.609C408.416 257.967 414.366 256 420.478 256H427.522C433.634 256 439.584 257.967 444.492 261.609C449.401 265.251 453.007 270.376 454.778 276.225C456.549 282.075 456.391 288.34 454.328 294.093C452.264 299.846 448.405 304.782 443.319 308.173V308.173Z" fill="#ffffff" id="id_112"></path>
<path d="M100.961 117.335L89.0391 106.665C63.7171 134.954 45.9998 169.215 37.5508 206.229L53.1543 209.77C61 175.406 77.4504 143.598 100.961 117.335V117.335Z" fill="#ffffff" id="id_113"></path>
<path d="M55.2881 355.561C64.4847 374.056 76.1913 391.192 90.0762 406.484L101.924 395.732C89.0289 381.53 78.157 365.616 69.6162 348.439L55.2881 355.561Z" fill="#ffffff" id="id_114"></path>
<path d="M271.416 48.5625L272.584 32.6055C261.543 31.8027 250.457 31.8027 239.416 32.6055L240.584 48.5625C250.848 47.8164 261.152 47.8164 271.416 48.5625V48.5625Z" fill="#ffffff" id="id_115"></path>
<path d="M432 208H416V224H432V208Z" fill="#ffffff" id="id_116"></path>
<path d="M492.422 240.845L476.422 248.845L483.578 263.156L499.578 255.156L492.422 240.845Z" fill="#ffffff" id="id_117"></path>
<path d="M466.343 210.343L450.343 226.343L461.657 237.657L477.657 221.657L466.343 210.343Z" fill="#ffffff" id="id_118"></path>
<path d="M355.578 240.844L348.422 255.155L364.422 263.155L371.578 248.844L355.578 240.844Z" fill="#ffffff" id="id_119"></path>
<path d="M381.657 210.343L370.343 221.657L386.343 237.657L397.657 226.343L381.657 210.343Z" fill="#ffffff" id="id_120"></path>
</svg>